<svg width="548" height="130" viewBox="0 0 548 130" fill="none" xmlns="http://www.w3.org/2000/svg">
<g clip-path="url(#clip0_2559_1338)">
<mask id="mask0_2559_1338" style="mask-type:alpha" maskUnits="userSpaceOnUse" x="0" y="0" width="548" height="130">
<rect width="548" height="130" fill="url(#paint0_linear_2559_1338)"/>
</mask>
<g mask="url(#mask0_2559_1338)">
<rect x="368" y="73" width="20" height="20" stroke="#8B49F7"/>
<rect x="448" y="73" width="20" height="20" fill="#8149F7" fill-opacity="0.3" stroke="#8B49F7"/>
<rect x="208" y="13" width="20" height="20" fill="#8149F7" fill-opacity="0.3" stroke="#8B49F7"/>
<rect x="288" y="73" width="20" height="20" stroke="#8B49F7"/>
<rect x="208" y="73" width="20" height="20" fill="#8149F7" fill-opacity="0.3" stroke="#8B49F7"/>
<rect x="528" y="13" width="20" height="20" fill="#8149F7" fill-opacity="0.3" stroke="#8B49F7"/>
<rect x="388" y="13" width="20" height="20" stroke="#8B49F7"/>
<rect x="388" y="73" width="20" height="20" stroke="#8B49F7"/>
<rect x="468" y="13" width="20" height="20" fill="#8149F7" fill-opacity="0.3" stroke="#8B49F7"/>
<rect x="468" y="73" width="20" height="20" fill="#8149F7" fill-opacity="0.3" stroke="#8B49F7"/>
<rect x="308" y="13" width="20" height="20" fill="#8149F7" fill-opacity="0.3" stroke="#8B49F7"/>
<rect x="308" y="73" width="20" height="20" fill="#8149F7" fill-opacity="0.3" stroke="#8B49F7"/>
<rect x="548" y="13" width="20" height="20" fill="#8149F7" fill-opacity="0.3" stroke="#8B49F7"/>
<rect x="548" y="73" width="20" height="20" fill="#8149F7" fill-opacity="0.3" stroke="#8B49F7"/>
<rect x="388" y="33" width="20" height="20" fill="#8149F7" fill-opacity="0.3" stroke="#8B49F7"/>
<rect x="388" y="93" width="20" height="20" fill="#8149F7" fill-opacity="0.3" stroke="#8B49F7"/>
<rect x="468" y="33" width="20" height="20" stroke="#8B49F7"/>
<rect x="468" y="113" width="20" height="20" stroke="#8B49F7"/>
<rect x="308" y="33" width="20" height="20" stroke="#8B49F7"/>
<rect x="228" y="33" width="20" height="20" stroke="#8B49F7"/>
<rect x="308" y="93" width="20" height="20" stroke="#8B49F7"/>
<rect x="228" y="93" width="20" height="20" fill="#8149F7" fill-opacity="0.3" stroke="#8B49F7"/>
<rect x="548" y="33" width="20" height="20" fill="#8149F7" fill-opacity="0.3" stroke="#8B49F7"/>
<rect x="548" y="93" width="20" height="20" fill="#8149F7" fill-opacity="0.3" stroke="#8B49F7"/>
<rect x="368" y="33" width="20" height="20" stroke="#8B49F7"/>
<rect x="448" y="33" width="20" height="20" fill="#8149F7" fill-opacity="0.3" stroke="#8B49F7"/>
<rect x="448" y="93" width="20" height="20" stroke="#8B49F7"/>
<rect x="448" y="113" width="20" height="20" fill="#8149F7" fill-opacity="0.3" stroke="#8B49F7"/>
<rect x="288" y="33" width="20" height="20" fill="#8149F7" fill-opacity="0.3" stroke="#8B49F7"/>
<rect x="208" y="33" width="20" height="20" fill="#8149F7" fill-opacity="0.3" stroke="#8B49F7"/>
<rect x="288" y="93" width="20" height="20" stroke="#8B49F7"/>
<rect x="208" y="93" width="20" height="20" fill="#8149F7" fill-opacity="0.3" stroke="#8B49F7"/>
<rect x="208" y="113" width="20" height="20" fill="#8149F7" fill-opacity="0.3" stroke="#8B49F7"/>
<rect x="528" y="93" width="20" height="20" fill="#8149F7" fill-opacity="0.3" stroke="#8B49F7"/>
<rect x="528" y="113" width="20" height="20" fill="#8149F7" fill-opacity="0.3" stroke="#8B49F7"/>
<rect x="408" y="93" width="20" height="20" stroke="#8B49F7"/>
<rect x="488" y="33" width="20" height="20" fill="#8149F7" fill-opacity="0.3" stroke="#8B49F7"/>
<rect x="488" y="113" width="20" height="20" stroke="#8B49F7"/>
<rect x="328" y="93" width="20" height="20" fill="#8149F7" fill-opacity="0.3" stroke="#8B49F7"/>
<rect x="328" y="113" width="20" height="20" fill="#8149F7" fill-opacity="0.3" stroke="#8B49F7"/>
<rect x="408" y="73" width="20" height="20" fill="#8149F7" fill-opacity="0.3" stroke="#8B49F7"/>
<rect x="488" y="13" width="20" height="20" stroke="#8B49F7"/>
<rect x="328" y="73" width="20" height="20" stroke="#8B49F7"/>
<rect x="428" y="13" width="20" height="20" stroke="#8B49F7"/>
<rect x="508" y="73" width="20" height="20" fill="#8149F7" fill-opacity="0.3" stroke="#8B49F7"/>
<rect x="348" y="13" width="20" height="20" stroke="#8B49F7"/>
<rect x="268" y="73" width="20" height="20" fill="#8149F7" fill-opacity="0.3" stroke="#8B49F7"/>
<rect x="428" y="33" width="20" height="20" fill="#8149F7" fill-opacity="0.3" stroke="#8B49F7"/>
<rect x="428" y="113" width="20" height="20" stroke="#8B49F7"/>
<rect x="508" y="33" width="20" height="20" fill="#8149F7" fill-opacity="0.3" stroke="#8B49F7"/>
<rect x="508" y="93" width="20" height="20" stroke="#8B49F7"/>
<rect x="508" y="113" width="20" height="20" fill="#8149F7" fill-opacity="0.3" stroke="#8B49F7"/>
<rect x="348" y="33" width="20" height="20" stroke="#8B49F7"/>
<rect x="268" y="33" width="20" height="20" fill="#8149F7" fill-opacity="0.3" stroke="#8B49F7"/>
<rect x="348" y="113" width="20" height="20" stroke="#8B49F7"/>
<rect x="428" y="-7" width="20" height="20" fill="#8149F7" fill-opacity="0.3" stroke="#8B49F7"/>
<rect x="428" y="53" width="20" height="20" fill="#8149F7" fill-opacity="0.3" stroke="#8B49F7"/>
<rect x="508" y="53" width="20" height="20" stroke="#8B49F7"/>
<rect x="348" y="-7" width="20" height="20" fill="#8149F7" fill-opacity="0.3" stroke="#8B49F7"/>
<rect x="408" y="-7" width="20" height="20" fill="#8149F7" fill-opacity="0.3" stroke="#8B49F7"/>
<rect x="408" y="53" width="20" height="20" stroke="#8B49F7"/>
<rect x="488" y="-7" width="20" height="20" fill="#8149F7" fill-opacity="0.3" stroke="#8B49F7"/>
<rect x="328" y="-7" width="20" height="20" stroke="#8B49F7"/>
<rect x="328" y="53" width="20" height="20" fill="#8149F7" fill-opacity="0.3" stroke="#8B49F7"/>
<rect x="248" y="53" width="20" height="20" fill="#8149F7" fill-opacity="0.3" stroke="#8B49F7"/>
<rect x="308" y="-7" width="20" height="20" fill="#8149F7" fill-opacity="0.3" stroke="#8B49F7"/>
<rect x="228" y="-7" width="20" height="20" fill="#8149F7" fill-opacity="0.3" stroke="#8B49F7"/>
<rect x="228" y="53" width="20" height="20" fill="#8149F7" fill-opacity="0.3" stroke="#8B49F7"/>
<rect x="548" y="-7" width="20" height="20" fill="#8149F7" fill-opacity="0.3" stroke="#8B49F7"/>
<rect x="548" y="53" width="20" height="20" fill="#8149F7" fill-opacity="0.3" stroke="#8B49F7"/>
<rect x="288" y="-7" width="20" height="20" fill="#8149F7" fill-opacity="0.3" stroke="#8B49F7"/>
<rect x="208" y="-7" width="20" height="20" fill="#8149F7" fill-opacity="0.3" stroke="#8B49F7"/>
<rect x="208" y="53" width="20" height="20" fill="#8149F7" fill-opacity="0.3" stroke="#8B49F7"/>
<rect x="528" y="-7" width="20" height="20" stroke="#8B49F7"/>
<rect x="328" y="33" width="20" height="20" fill="#8149F7" fill-opacity="0.3" stroke="#8B49F7"/>
<rect x="268" y="-7" width="20" height="20" fill="#8149F7" fill-opacity="0.3" stroke="#8B49F7"/>
<g filter="url(#filter0_f_2559_1338)">
<rect x="448" y="53" width="20" height="20" fill="#8149F7" fill-opacity="0.3"/>
<rect x="448" y="53" width="20" height="20" stroke="#8B49F7"/>
</g>
</g>
</g>
<defs>
<filter id="filter0_f_2559_1338" x="446.5" y="51.5" width="23" height="23" filterUnits="userSpaceOnUse" color-interpolation-filters="sRGB">
<feFlood flood-opacity="0" result="BackgroundImageFix"/>
<feBlend mode="normal" in="SourceGraphic" in2="BackgroundImageFix" result="shape"/>
<feGaussianBlur stdDeviation="0.5" result="effect1_foregroundBlur_2559_1338"/>
</filter>
<linearGradient id="paint0_linear_2559_1338" x1="325.158" y1="-6.50001" x2="286.64" y2="154.987" gradientUnits="userSpaceOnUse">
<stop stop-color="#D9D9D9"/>
<stop offset="0.443879" stop-color="#D9D9D9" stop-opacity="0"/>
</linearGradient>
<clipPath id="clip0_2559_1338">
<rect width="548" height="130" fill="white"/>
</clipPath>
</defs>
</svg>
